<svg version="1.1" id="Layer_1" xmlns="http://www.w3.org/2000/svg" xmlns:xlink="http://www.w3.org/1999/xlink" x="0px" y="0px"
	 width="40px" height="200px" viewBox="300 540 40 200" enable-background="new 300 540 40 200" xml:space="preserve">
<g transform="translate(0.000000,1280.000000) scale(0.100000,-0.100000)">
	<path fill="#FFFFFF" stroke="#FFFFFF" stroke-width="3" stroke-miterlimit="10" d="M3190.857,7354.68
		c-3.306-12.769-6.406-73.955-7.266-145.781c-1.978-157.788-3.76-582.719-3.213-767.006c0-18.145,0.112-81.89,0.415-141.694
		c0.693-260.02,3.53-453.125,7.661-530.547l0.605-11.777l-9.263-0.254c-16.265-0.625-48.657,1.426-86.44,5.566
		c-20.122,2.266-40.264,3.633-44.868,3.281c-6.216-0.566-10.205,0.078-15.977,2.715c-4.326,1.934-9.468,3.32-11.382,3.047
		c-3.384-0.469-3.467-0.938-2.051-6.738c1.602-6.074,9.619-18.301,42.017-64.141c16.104-22.793,35.679-53.203,47.646-74.316
		c22.476-39.297,35.498-66.875,64.082-135.742c10.381-24.805,13.936-31.953,19.219-37.52c1.782-1.992,4.277-5.84,5.4-8.535
		c2.822-6.211,5.176-5.879,9.99,1.563c5.078,7.598,7.227,12.559,24.033,54.219c36.416,89.883,60.762,135.449,115.166,214.805
		c32.715,47.949,37.646,56.582,34.229,60.605c-1.992,2.422-13.926-1.191-22.744-6.797l-7.969-5.156l1.836,4.004
		c1.055,2.09,1.67,5.176,1.445,6.797c-0.977,6.914-11.289,6.66-47.842-1.172c-32.471-6.953-51.074-10.176-78.184-13.691
		c-15.928-1.934-17.441-1.836-17.031,0.605c4.844,32.793,8.447,77.539,10.303,126.27c2.891,80.801,4.678,210.059,5.146,368.984
		c0.137,39.629,0.283,79.102,0.264,87.793c0.127,8.711,0.146,54.468,0.107,101.714c-0.02,47.109-0.039,124.063-0.039,171.016
		c-0.02,248.862-1.924,427.856-5.82,526.01c-2.93,76.396-4.346,94.946-11.123,143.198c-6.802,49.448-10.562,67.671-14.438,71.777
		C3192.507,7360.012,3192.234,7359.821,3190.857,7354.68z M3104.978,5718.909c24.497-8.848,53.643-14.512,82.041-15.918
		c21.772-1.133,69.517,6.016,88.608,13.203c12.549,4.609,26.201,11.035,36.484,16.836c1.533,0.801-1.914-3.438-7.646-9.629
		c-28.301-30.234-57.715-76.074-77.158-120.215c-10.928-24.785-24.683-68.867-27.944-89.414c-0.273-1.25-2.402,6.406-4.937,16.992
		c-15.771,67.402-48.735,131.172-93.413,181.133c-5.698,6.406-10.181,11.621-9.741,11.699
		C3091.565,5723.635,3097.717,5721.487,3104.978,5718.909z"/>
</g>
</svg>
