<svg id="arrow" xmlns="http://www.w3.org/2000/svg" xmlns:xlink="http://www.w3.org/1999/xlink" x="0px" y="0px"
	 width="64px" height="128px" viewBox="0 0 64 128">
<g transform="translate(0.000000,1280.000000) scale(0.100000,-0.100000)">
	<path fill="#FFFFFF" d="M3586.914,12887.385c-22.246-85.938-43.105-497.847-48.887-981.357c-13.301-1062.188-25.313-3922.7-21.621-5163.256
		c0-122.192,0.723-551.265,2.773-953.891c4.668-1750.4,23.77-3050.381,51.582-3571.592l4.063-79.199l-62.363-1.699
		c-109.473-4.277-327.524,9.512-581.87,37.383c-135.459,15.293-271.055,24.512-302.031,22.178
		c-41.865-3.857-68.73,0.439-107.578,18.213c-29.111,13.076-63.73,22.354-76.602,20.547c-22.783-3.203-23.35-6.328-13.818-45.371
		c10.791-40.898,64.766-123.184,282.842-431.836c108.408-153.418,240.176-358.066,320.742-500.234
		c151.289-264.531,238.96-450.127,431.382-913.848c69.902-166.904,93.828-215.039,129.395-252.461
		c11.992-13.457,28.77-39.375,36.348-57.49c19.004-41.777,34.844-39.551,67.207,10.449c34.199,51.26,48.691,84.6,161.777,365.068
		c245.176,605.02,409.062,911.807,775.293,1445.967c220.215,322.793,253.438,380.977,230.449,408.057
		c-13.398,16.289-93.77-8.145-153.125-45.762l-53.672-34.814l12.363,26.982c7.109,14.131,11.27,34.912,9.727,45.801
		c-6.543,46.543-75.996,44.863-322.031-7.891c-218.613-46.875-343.808-68.516-526.308-92.148
		c-107.227-13.047-117.402-12.461-114.688,4.082c32.617,220.684,56.914,521.992,69.395,849.932
		c19.473,544.004,31.504,1414.131,34.629,2483.994c0.898,266.709,1.914,532.441,1.777,590.996
		c0.84,58.691,0.957,366.699,0.703,684.756c-0.117,317.065-0.234,835.103-0.215,1151.177
		c-0.156,1675.284-12.969,2880.224-39.199,3541.005c-19.766,514.258-29.238,639.155-74.883,963.96
		c-45.781,332.866-71.094,455.537-97.188,483.179C3598.047,12923.273,3596.191,12922.009,3586.914,12887.385z M3008.823,1875.765
		c164.902-59.629,361.118-97.695,552.29-107.178c146.504-7.686,467.91,40.508,596.426,88.877
		c84.512,31.055,176.387,74.258,245.625,113.281c10.332,5.488-12.91-23.018-51.465-64.795
		c-190.547-203.506-388.515-512.061-519.453-809.17c-73.496-166.846-166.094-463.633-188.047-602.031
		c-1.855-8.34-16.172,43.174-33.242,114.492c-106.172,453.633-328.086,882.93-628.833,1219.346
		c-38.359,43.076-68.545,78.223-65.576,78.643C2918.53,1907.503,2959.927,1893.128,3008.823,1875.765z"/>
</g>
</svg>
